<mxfile host="www.draw.io" modified="2019-12-06T14:34:26.567Z" agent="Mozilla/5.0 (Macintosh; Intel Mac OS X 10_14_5) AppleWebKit/537.36 (KHTML, like Gecko) Chrome/78.0.3904.108 Safari/537.36" etag="0aam9dnZ1SzKIYT0qs3C" version="12.3.7" type="github" pages="1">
  <diagram id="MsyOhonskGWFi_sxvJIa" name="Page-1">
    <mxGraphModel dx="926" dy="561" grid="1" gridSize="10" guides="1" tooltips="1" connect="1" arrows="1" fold="1" page="1" pageScale="1" pageWidth="827" pageHeight="1169" math="0" shadow="0">
      <root>
        <mxCell id="0"/>
        <mxCell id="1" parent="0"/>
        <mxCell id="eBJHunfSjEwtxHHmSKfD-1" value="hotel_rn" style="rounded=1;whiteSpace=wrap;html=1;" vertex="1" parent="1">
          <mxGeometry x="550" y="241" width="200" height="90" as="geometry"/>
        </mxCell>
        <mxCell id="eBJHunfSjEwtxHHmSKfD-2" value="home_rn" style="rounded=1;whiteSpace=wrap;html=1;" vertex="1" parent="1">
          <mxGeometry x="90" y="241" width="200" height="88" as="geometry"/>
        </mxCell>
        <mxCell id="eBJHunfSjEwtxHHmSKfD-3" value="new_rn" style="rounded=1;whiteSpace=wrap;html=1;" vertex="1" parent="1">
          <mxGeometry x="370" y="350" width="120" height="60" as="geometry"/>
        </mxCell>
        <mxCell id="eBJHunfSjEwtxHHmSKfD-4" value="common_bizVersion" style="rounded=1;whiteSpace=wrap;html=1;" vertex="1" parent="1">
          <mxGeometry x="353" y="120" width="120" height="40" as="geometry"/>
        </mxCell>
        <mxCell id="eBJHunfSjEwtxHHmSKfD-6" value="{&lt;br&gt;&amp;nbsp; &amp;nbsp;home_rn: 1&lt;br&gt;&amp;nbsp; &amp;nbsp;hotel_rn: 1&lt;br&gt;}" style="rounded=1;whiteSpace=wrap;html=1;align=left;" vertex="1" parent="1">
          <mxGeometry x="30" y="30" width="80" height="60" as="geometry"/>
        </mxCell>
        <mxCell id="eBJHunfSjEwtxHHmSKfD-7" value="{&lt;br&gt;&amp;nbsp; &amp;nbsp; home_rn: 2&lt;br&gt;&amp;nbsp; &amp;nbsp; hotel_rn: 1&lt;br&gt;}" style="rounded=1;whiteSpace=wrap;html=1;align=left;" vertex="1" parent="1">
          <mxGeometry x="170" y="30" width="90" height="60" as="geometry"/>
        </mxCell>
        <mxCell id="eBJHunfSjEwtxHHmSKfD-10" value="" style="endArrow=classic;html=1;" edge="1" parent="1">
          <mxGeometry width="50" height="50" relative="1" as="geometry">
            <mxPoint x="220" y="140" as="sourcePoint"/>
            <mxPoint x="220" y="90" as="targetPoint"/>
          </mxGeometry>
        </mxCell>
        <mxCell id="eBJHunfSjEwtxHHmSKfD-11" value="{&lt;br&gt;&amp;nbsp; &amp;nbsp; home_rn: 2,&lt;br&gt;&amp;nbsp; &amp;nbsp; hotel_rn: 2&lt;br&gt;}" style="rounded=1;whiteSpace=wrap;html=1;align=left;" vertex="1" parent="1">
          <mxGeometry x="290" y="35" width="110" height="50" as="geometry"/>
        </mxCell>
        <mxCell id="eBJHunfSjEwtxHHmSKfD-14" value="&lt;div&gt;&lt;br&gt;&lt;/div&gt;&lt;div style=&quot;text-align: left&quot;&gt;/**&lt;/div&gt;&lt;div style=&quot;text-align: left&quot;&gt;&lt;br&gt;&lt;/div&gt;&lt;div style=&quot;text-align: left&quot;&gt;localBizVersionMap = {&lt;/div&gt;&lt;div style=&quot;text-align: left&quot;&gt;&lt;span style=&quot;white-space: pre&quot;&gt;	&lt;/span&gt;home_rn: 1,&lt;/div&gt;&lt;div style=&quot;text-align: left&quot;&gt;&lt;span style=&quot;white-space: pre&quot;&gt;	&lt;/span&gt;hotel_rn: 2&lt;span style=&quot;white-space: pre&quot;&gt;	&lt;/span&gt;&lt;/div&gt;&lt;div style=&quot;text-align: left&quot;&gt;};&lt;/div&gt;&lt;div style=&quot;text-align: left&quot;&gt;&lt;br&gt;&lt;/div&gt;&lt;div style=&quot;text-align: left&quot;&gt;&amp;nbsp;*/&lt;/div&gt;&lt;div style=&quot;text-align: left&quot;&gt;&lt;br&gt;&lt;/div&gt;&lt;div style=&quot;text-align: left&quot;&gt;function validBizVersion(value) {&lt;/div&gt;&lt;div style=&quot;text-align: left&quot;&gt;&lt;span style=&quot;white-space: pre&quot;&gt;	&lt;/span&gt;return typeof value === &#39;number&#39;;&lt;/div&gt;&lt;div style=&quot;text-align: left&quot;&gt;}&lt;/div&gt;&lt;div style=&quot;text-align: left&quot;&gt;&lt;br&gt;&lt;/div&gt;&lt;div style=&quot;text-align: left&quot;&gt;// 放在工程最初位置，用于初始话本地的 localBizVersionMap&lt;/div&gt;&lt;div style=&quot;text-align: left&quot;&gt;function initBizVersionPackageMap(packageNameList, baseBizVersion) {&lt;/div&gt;&lt;div style=&quot;text-align: left&quot;&gt;&lt;span style=&quot;white-space: pre&quot;&gt;	&lt;/span&gt;// 参数检验 start&lt;/div&gt;&lt;div style=&quot;text-align: left&quot;&gt;&lt;span style=&quot;white-space: pre&quot;&gt;	&lt;/span&gt;if (!isArray(packageNameList)) {&lt;/div&gt;&lt;div style=&quot;text-align: left&quot;&gt;&lt;span style=&quot;white-space: pre&quot;&gt;		&lt;/span&gt;throw new Error(&#39;参数packageNameList错误&#39;);&lt;/div&gt;&lt;div style=&quot;text-align: left&quot;&gt;&lt;span style=&quot;white-space: pre&quot;&gt;	&lt;/span&gt;}&lt;/div&gt;&lt;div style=&quot;text-align: left&quot;&gt;&lt;span style=&quot;white-space: pre&quot;&gt;	&lt;/span&gt;if (baseBizVersion !== void 0 &amp;amp;&amp;amp; !validBizVersion(baseBizVersion)) {&lt;/div&gt;&lt;div style=&quot;text-align: left&quot;&gt;&lt;span style=&quot;white-space: pre&quot;&gt;		&lt;/span&gt;throw new Error(&#39;参数baseBizVersion错误&#39;);&lt;/div&gt;&lt;div style=&quot;text-align: left&quot;&gt;&lt;span style=&quot;white-space: pre&quot;&gt;	&lt;/span&gt;}&lt;/div&gt;&lt;div style=&quot;text-align: left&quot;&gt;&lt;span style=&quot;white-space: pre&quot;&gt;	&lt;/span&gt;// 参数检验 end&lt;/div&gt;&lt;div style=&quot;text-align: left&quot;&gt;&lt;br&gt;&lt;/div&gt;&lt;div style=&quot;text-align: left&quot;&gt;&lt;span style=&quot;white-space: pre&quot;&gt;	&lt;/span&gt;// ---- cursor移动到最后一位 ----&lt;/div&gt;&lt;div style=&quot;text-align: left&quot;&gt;&lt;span style=&quot;white-space: pre&quot;&gt;	&lt;/span&gt;&amp;nbsp; const currentCursor = resetCursor() || 0;&lt;/div&gt;&lt;div style=&quot;text-align: left&quot;&gt;&lt;span style=&quot;white-space: pre&quot;&gt;	&lt;/span&gt;// --------&lt;/div&gt;&lt;div style=&quot;text-align: left&quot;&gt;&lt;br&gt;&lt;/div&gt;&lt;div style=&quot;text-align: left&quot;&gt;&lt;span style=&quot;white-space: pre&quot;&gt;	&lt;/span&gt;const localBizVersionMap = getLocalBizVersionMap(currentCursor) || {};&lt;/div&gt;&lt;div style=&quot;text-align: left&quot;&gt;&lt;span style=&quot;white-space: pre&quot;&gt;	&lt;/span&gt;// 通过传入的 packageNameList 来判断有哪些是新增的包&lt;/div&gt;&lt;div style=&quot;text-align: left&quot;&gt;&lt;span style=&quot;white-space: pre&quot;&gt;	&lt;/span&gt;const newPackageList = packageNameList.filter(packName =&amp;gt; {&lt;/div&gt;&lt;div style=&quot;text-align: left&quot;&gt;&lt;span style=&quot;white-space: pre&quot;&gt;		&lt;/span&gt;return !validBizVersion(localBizVersionMap[packName]);&lt;/div&gt;&lt;div style=&quot;text-align: left&quot;&gt;&lt;span style=&quot;white-space: pre&quot;&gt;	&lt;/span&gt;});&lt;/div&gt;&lt;div style=&quot;text-align: left&quot;&gt;&lt;span style=&quot;white-space: pre&quot;&gt;	&lt;/span&gt;// 计算新增包应该给的基础bizVersion版本&lt;/div&gt;&lt;div style=&quot;text-align: left&quot;&gt;&lt;span style=&quot;white-space: pre&quot;&gt;	&lt;/span&gt;let defaultSettedBizVersion = 0;&lt;/div&gt;&lt;div style=&quot;text-align: left&quot;&gt;&lt;span style=&quot;white-space: pre&quot;&gt;	&lt;/span&gt;if (validBizVersion(baseBizVersion)) {&lt;/div&gt;&lt;div style=&quot;text-align: left&quot;&gt;&lt;span style=&quot;white-space: pre&quot;&gt;		&lt;/span&gt;defaultSettedBizVersion = baseBizVersion;&lt;/div&gt;&lt;div style=&quot;text-align: left&quot;&gt;&lt;span style=&quot;white-space: pre&quot;&gt;	&lt;/span&gt;} else {&lt;/div&gt;&lt;div style=&quot;text-align: left&quot;&gt;&lt;span style=&quot;white-space: pre&quot;&gt;		&lt;/span&gt;// 获取到当前本地map中最大的bizVersion用于设置新增包的基础版本&lt;/div&gt;&lt;div style=&quot;text-align: left&quot;&gt;&lt;span style=&quot;white-space: pre&quot;&gt;		&lt;/span&gt;defaultSettedBizVersion = getMaxBizVersionOfLocalMap(localBizVersionMap) || 0;&lt;/div&gt;&lt;div style=&quot;text-align: left&quot;&gt;&lt;span style=&quot;white-space: pre&quot;&gt;	&lt;/span&gt;}&lt;/div&gt;&lt;div style=&quot;text-align: left&quot;&gt;&lt;span style=&quot;white-space: pre&quot;&gt;	&lt;/span&gt;const newLocalBizVersionMap = {&lt;/div&gt;&lt;div style=&quot;text-align: left&quot;&gt;&lt;span style=&quot;white-space: pre&quot;&gt;		&lt;/span&gt;...localBizVersionMap&lt;/div&gt;&lt;div style=&quot;text-align: left&quot;&gt;&lt;span style=&quot;white-space: pre&quot;&gt;	&lt;/span&gt;};&lt;/div&gt;&lt;div style=&quot;text-align: left&quot;&gt;&lt;br&gt;&lt;/div&gt;&lt;div style=&quot;text-align: left&quot;&gt;&lt;span style=&quot;white-space: pre&quot;&gt;	&lt;/span&gt;// 计算最新版本map&lt;/div&gt;&lt;div style=&quot;text-align: left&quot;&gt;&lt;span style=&quot;white-space: pre&quot;&gt;	&lt;/span&gt;newPackageList.forEach(packName =&amp;gt; {&lt;/div&gt;&lt;div style=&quot;text-align: left&quot;&gt;&lt;span style=&quot;white-space: pre&quot;&gt;		&lt;/span&gt;newLocalBizVersionMap[packName] = defaultSettedBizVersion;&lt;/div&gt;&lt;div style=&quot;text-align: left&quot;&gt;&lt;span style=&quot;white-space: pre&quot;&gt;	&lt;/span&gt;});&lt;/div&gt;&lt;div style=&quot;text-align: left&quot;&gt;&lt;br&gt;&lt;/div&gt;&lt;div style=&quot;text-align: left&quot;&gt;&lt;span style=&quot;white-space: pre&quot;&gt;	&lt;/span&gt;// 将最新版map设置到本地map中&lt;/div&gt;&lt;div style=&quot;text-align: left&quot;&gt;&lt;span style=&quot;white-space: pre&quot;&gt;	&lt;/span&gt;setBackBizVersionMapToLocal(newLocalBizVersionMap, currentCursor);&lt;/div&gt;&lt;div style=&quot;text-align: left&quot;&gt;}&lt;/div&gt;&lt;div style=&quot;text-align: left&quot;&gt;&lt;br&gt;&lt;/div&gt;&lt;div style=&quot;text-align: left&quot;&gt;&lt;br&gt;&lt;/div&gt;&lt;div style=&quot;text-align: left&quot;&gt;// 这个是在每个不同的包中使用的获取bizVersion的方法，带到http请求中作为参数&lt;/div&gt;&lt;div style=&quot;text-align: left&quot;&gt;function getBizVersion(packageName, packageBizVersion) {&lt;/div&gt;&lt;div style=&quot;text-align: left&quot;&gt;&lt;span style=&quot;white-space: pre&quot;&gt;	&lt;/span&gt;// 参数检验 start&lt;/div&gt;&lt;div style=&quot;text-align: left&quot;&gt;&lt;span style=&quot;white-space: pre&quot;&gt;	&lt;/span&gt;if (packageBizVersion !== void 0 &amp;amp;&amp;amp; !validBizVersion(packageBizVersion)) {&lt;/div&gt;&lt;div style=&quot;text-align: left&quot;&gt;&lt;span style=&quot;white-space: pre&quot;&gt;		&lt;/span&gt;throw new Error(&#39;参数packageBizVersion错误&#39;);&lt;/div&gt;&lt;div style=&quot;text-align: left&quot;&gt;&lt;span style=&quot;white-space: pre&quot;&gt;	&lt;/span&gt;}&lt;/div&gt;&lt;div style=&quot;text-align: left&quot;&gt;&lt;br&gt;&lt;/div&gt;&lt;div style=&quot;text-align: left&quot;&gt;&lt;span style=&quot;white-space: pre&quot;&gt;	&lt;/span&gt;// 参数检验 end&lt;/div&gt;&lt;div style=&quot;text-align: left&quot;&gt;&lt;span style=&quot;white-space: pre&quot;&gt;	&lt;/span&gt;updateLocalBizVersion(packageName, packageBizVersion);&lt;/div&gt;&lt;div style=&quot;text-align: left&quot;&gt;&lt;span style=&quot;white-space: pre&quot;&gt;	&lt;/span&gt;// 木桶效应，选择最小版本bizVersion&lt;/div&gt;&lt;div style=&quot;text-align: left&quot;&gt;&lt;span style=&quot;white-space: pre&quot;&gt;	&lt;/span&gt;const electionBizVersion = getElectionBizVersion();&lt;/div&gt;&lt;div style=&quot;text-align: left&quot;&gt;&lt;span style=&quot;white-space: pre&quot;&gt;	&lt;/span&gt;return electionBizVersion;&lt;/div&gt;&lt;div style=&quot;text-align: left&quot;&gt;}&lt;/div&gt;&lt;div style=&quot;text-align: left&quot;&gt;&lt;br&gt;&lt;/div&gt;&lt;div style=&quot;text-align: left&quot;&gt;// 获取q-hotel-common包中的bizVersion用于更新数据&lt;/div&gt;&lt;div style=&quot;text-align: left&quot;&gt;updateLocalBizVersion(packageName, packageBizVersion) {&lt;/div&gt;&lt;div style=&quot;text-align: left&quot;&gt;&lt;span style=&quot;white-space: pre&quot;&gt;	&lt;/span&gt;const isEntryPackage = checkIsEntryPackage();&lt;/div&gt;&lt;div style=&quot;text-align: left&quot;&gt;&lt;span style=&quot;white-space: pre&quot;&gt;	&lt;/span&gt;// ---- cursor移动到最后一位 ----&lt;/div&gt;&lt;div style=&quot;text-align: left&quot;&gt;&lt;span style=&quot;white-space: pre&quot;&gt;	&lt;/span&gt;if (isEntryPackage) {&lt;/div&gt;&lt;div style=&quot;text-align: left&quot;&gt;&lt;br&gt;&lt;/div&gt;&lt;div style=&quot;text-align: left&quot;&gt;&lt;span style=&quot;white-space: pre&quot;&gt;		&lt;/span&gt;const currentCursor = resetCursor() || 0;&lt;/div&gt;&lt;div style=&quot;text-align: left&quot;&gt;&lt;span style=&quot;white-space: pre&quot;&gt;	&lt;/span&gt;}&lt;/div&gt;&lt;div style=&quot;text-align: left&quot;&gt;&lt;span style=&quot;white-space: pre&quot;&gt;	&lt;/span&gt;// ----&lt;/div&gt;&lt;div style=&quot;text-align: left&quot;&gt;&lt;br&gt;&lt;/div&gt;&lt;div style=&quot;text-align: left&quot;&gt;&lt;span style=&quot;white-space: pre&quot;&gt;	&lt;/span&gt;const localBizVersionMap = getLocalBizVersionMap();&lt;/div&gt;&lt;div style=&quot;text-align: left&quot;&gt;&lt;span style=&quot;white-space: pre&quot;&gt;	&lt;/span&gt;const localpackageBizVersion = localBizVersionMap[packageName];&lt;/div&gt;&lt;div style=&quot;text-align: left&quot;&gt;&lt;span style=&quot;white-space: pre&quot;&gt;	&lt;/span&gt;if (!validBizVersion(localpackageBizVersion)) {&lt;/div&gt;&lt;div style=&quot;text-align: left&quot;&gt;&lt;span style=&quot;white-space: pre&quot;&gt;		&lt;/span&gt;throw new Error(`包名为：${pacgeName}的在本地中未提前定义`);&lt;/div&gt;&lt;div style=&quot;text-align: left&quot;&gt;&lt;span style=&quot;white-space: pre&quot;&gt;	&lt;/span&gt;}&lt;/div&gt;&lt;div style=&quot;text-align: left&quot;&gt;&lt;span style=&quot;white-space: pre&quot;&gt;	&lt;/span&gt;if (packageBizVersion &amp;amp;&amp;amp; packageBizVersion &amp;gt; localpackageBizVersion) {&lt;/div&gt;&lt;div style=&quot;text-align: left&quot;&gt;&lt;span style=&quot;white-space: pre&quot;&gt;		&lt;/span&gt;// 1. 如果 packageName 是入口packageName则直接更新当前 cursor的Node&lt;/div&gt;&lt;div style=&quot;text-align: left&quot;&gt;&lt;span style=&quot;white-space: pre&quot;&gt;		&lt;/span&gt;// 2. 如果 packageName 不是入口packageName则分两步判断&lt;/div&gt;&lt;div style=&quot;text-align: left&quot;&gt;&lt;span style=&quot;white-space: pre&quot;&gt;		&lt;/span&gt;//&amp;nbsp; &amp;nbsp; 2-1: 如果当前cursor是最靠后一个node，则从当前cursor拷贝新建一个node放在后面并更新&lt;/div&gt;&lt;div style=&quot;text-align: left&quot;&gt;&lt;span style=&quot;white-space: pre&quot;&gt;		&lt;/span&gt;//&amp;nbsp; &amp;nbsp; 2-2: 如果当前cursor不是最靠后的node，则找到最靠后的node更新&lt;/div&gt;&lt;div style=&quot;text-align: left&quot;&gt;&lt;span style=&quot;white-space: pre&quot;&gt;		&lt;/span&gt;setBackPackageBizVersionToLocal(packageName, packageBizVersion);&lt;/div&gt;&lt;div style=&quot;text-align: left&quot;&gt;&lt;span style=&quot;white-space: pre&quot;&gt;	&lt;/span&gt;}&lt;/div&gt;&lt;div style=&quot;text-align: left&quot;&gt;}&lt;/div&gt;&lt;div style=&quot;text-align: left&quot;&gt;&lt;br&gt;&lt;/div&gt;&lt;div style=&quot;text-align: left&quot;&gt;&lt;br&gt;&lt;/div&gt;&lt;div style=&quot;text-align: left&quot;&gt;&lt;br&gt;&lt;/div&gt;&lt;div style=&quot;text-align: left&quot;&gt;&lt;br&gt;&lt;/div&gt;&lt;div style=&quot;text-align: left&quot;&gt;&lt;br&gt;&lt;/div&gt;&lt;div style=&quot;text-align: left&quot;&gt;// ----------------------------- 简版 --------------------------&lt;/div&gt;&lt;div style=&quot;text-align: left&quot;&gt;&lt;br&gt;&lt;/div&gt;&lt;div style=&quot;text-align: left&quot;&gt;1. 在入口处调用 initBizVersionPackageMap(packageNameList, baseBizVersion); 初始化所有本地localMapList&lt;/div&gt;&lt;div style=&quot;text-align: left&quot;&gt;&lt;br&gt;&lt;/div&gt;&lt;div style=&quot;text-align: left&quot;&gt;2. 在每个拆分的包处需要获取bizVersion的地方通过 getBizVersion(packageName, packageBizVersion) 获取，分两步骤:&lt;/div&gt;&lt;div style=&quot;text-align: left&quot;&gt;&amp;nbsp; &amp;nbsp;2.1 updateLocalBizVersion(packageName, packageBizVersion);&lt;/div&gt;&lt;div style=&quot;text-align: left&quot;&gt;&amp;nbsp; &amp;nbsp;2.2 getElectionBizVersion()&lt;/div&gt;&lt;div style=&quot;text-align: left&quot;&gt;&lt;br&gt;&lt;/div&gt;&lt;div style=&quot;text-align: left&quot;&gt;&lt;br&gt;&lt;/div&gt;&lt;div style=&quot;text-align: left&quot;&gt;&lt;br&gt;&lt;/div&gt;&lt;div style=&quot;text-align: left&quot;&gt;/**&lt;/div&gt;&lt;div style=&quot;text-align: left&quot;&gt;&lt;br&gt;&lt;/div&gt;&lt;div style=&quot;text-align: left&quot;&gt;{&amp;nbsp; &amp;nbsp; &amp;nbsp; &amp;nbsp; &amp;nbsp; &amp;nbsp; &amp;nbsp; &amp;nbsp; &amp;nbsp; &amp;nbsp; &amp;nbsp; {&amp;nbsp; &amp;nbsp; &amp;nbsp; &amp;nbsp; &amp;nbsp; &amp;nbsp; &amp;nbsp; &amp;nbsp; &amp;nbsp; &amp;nbsp; &amp;nbsp; &amp;nbsp; {&amp;nbsp; &amp;nbsp;&lt;/div&gt;&lt;div style=&quot;text-align: left&quot;&gt;&amp;nbsp; home_rn: 1,&amp;nbsp; &amp;nbsp; &amp;nbsp; &amp;nbsp; &amp;nbsp; &amp;nbsp; &amp;nbsp;home_rn: 2,&amp;nbsp; &amp;nbsp; &amp;nbsp; &amp;nbsp; &amp;nbsp; &amp;nbsp; &amp;nbsp; home_rn: 2,&lt;/div&gt;&lt;div style=&quot;text-align: left&quot;&gt;&amp;nbsp; hotel_rn: 1&lt;span style=&quot;white-space: pre&quot;&gt;	&lt;/span&gt;===&amp;gt;&amp;nbsp; &amp;nbsp; &amp;nbsp; hotel_rn: 1&amp;nbsp; =====&amp;gt;&amp;nbsp; &amp;nbsp; &amp;nbsp; hotel_rn: 2,&lt;/div&gt;&lt;div style=&quot;text-align: left&quot;&gt;};&amp;nbsp; &amp;nbsp; &amp;nbsp; &amp;nbsp; &amp;nbsp; &amp;nbsp; &amp;nbsp; &amp;nbsp; &amp;nbsp; &amp;nbsp; &amp;nbsp;}&amp;nbsp; &amp;nbsp; &amp;nbsp; &amp;nbsp; &amp;nbsp; &amp;nbsp; &amp;nbsp; &amp;nbsp; &amp;nbsp; &amp;nbsp; &amp;nbsp; &amp;nbsp; }&lt;/div&gt;&lt;div style=&quot;text-align: left&quot;&gt;&lt;br&gt;&lt;/div&gt;&lt;div style=&quot;text-align: left&quot;&gt;&lt;span style=&quot;white-space: pre&quot;&gt;							&lt;/span&gt; ^^&lt;/div&gt;&lt;div style=&quot;text-align: left&quot;&gt;&amp;nbsp; &amp;nbsp; &amp;nbsp; &amp;nbsp; &amp;nbsp; &amp;nbsp; &amp;nbsp; &amp;nbsp; &amp;nbsp; &amp;nbsp; &amp;nbsp; &amp;nbsp; &amp;nbsp; &amp;nbsp; &amp;nbsp;||&lt;/div&gt;&lt;div style=&quot;text-align: left&quot;&gt;&amp;nbsp; &amp;nbsp; &amp;nbsp; &amp;nbsp; &amp;nbsp; &amp;nbsp; &amp;nbsp; &amp;nbsp; &amp;nbsp; &amp;nbsp; &amp;nbsp; &amp;nbsp; &amp;nbsp; &amp;nbsp; &amp;nbsp;||&lt;/div&gt;&lt;div style=&quot;text-align: left&quot;&gt;&lt;br&gt;&lt;/div&gt;&lt;div style=&quot;text-align: left&quot;&gt;&amp;nbsp;*/&lt;/div&gt;&lt;div style=&quot;text-align: left&quot;&gt;&lt;br&gt;&lt;/div&gt;&lt;div style=&quot;text-align: left&quot;&gt;&lt;br&gt;&lt;/div&gt;" style="text;html=1;strokeColor=none;fillColor=none;align=center;verticalAlign=middle;whiteSpace=wrap;rounded=0;" vertex="1" parent="1">
          <mxGeometry x="30" y="430" width="770" height="1770" as="geometry"/>
        </mxCell>
      </root>
    </mxGraphModel>
  </diagram>
</mxfile>
